PathFileType	4	(X/Y/Z)	C:/Users/beibeiliu/ov580/test_trc/User3\sequence.32_training_dense_left.trc
DataRate	CameraRate	NumFrames	NumMarkers	Units	OrigDataRate	OrigDataStartFrame	OrigNumFrames
120	120	15	19	mm	120	55	109
Frame#	Time	ThumbCMC			ThumbMCP			ThumbIP			ThumbTip			IndexMCP			IndexPIP			IndexTip			MiddleMCP			MiddlePIP			MiddleTip			RingMCP			RingPIP			RingTip			PinkyMCP			PinkyPIP			PinkyTip			BackHand1			BackHand2			BackHand3	
		X0	Y0	Z0	X1	Y1	Z1	X2	Y2	Z2	X3	Y3	Z3	X4	Y4	Z4	X5	Y5	Z5	X6	Y6	Z6	X7	Y7	Z7	X8	Y8	Z8	X9	Y9	Z9	X10	Y10	Z10	X11	Y11	Z11	X12	Y12	Z12	X13	Y13	Z13	X14	Y14	Z14	X15	Y15	Z15	X16	Y16	Z16	X17	Y17	Z17	X18	Y18	Z18	
54	0.45	-132.977	-4.30271	-20.3253	-117.062	-19.3808	-41.6248	-105.247	-33.3342	-68.6229	-105.114	-47.2639	-85.656	-160.174	10.2381	-89.613	-155.268	7.90596	-120.034	-152.179	3.66953	-139.456	-184.533	3.83036	-93.832	-179.721	0.661383	-124.398	-176.717	-7.10022	-154.028	-198.555	-9.0941	-83.1003	-201.299	-12.7833	-111.798	-197.449	-19.2471	-135.085	-209.571	-24.1597	-70.8312	-212.743	-28.6666	-91.4326	-214.679	-34.3028	-113.327	-200.198	-0.0953635	-31.3343	-199.115	-2.86151	-1.11684	-167.051	14.3177	-22.4477	
55	0.458333	-140.293	-2.49226	-21.735	-120.995	-17.4698	-47.8095	-115.66	-32.8447	-71.2435	-112.576	-49.1034	-91.653	-169.047	10.658	-89.8164	-164.342	7.74828	-119.311	-161.377	4.01374	-143.002	-189.64	3.88598	-95.0573	-187.501	1.44849	-125.304	-187.415	-8.09263	-151.46	-201.574	-9.36093	-82.3409	-206.991	-14.5621	-114.199	-205.164	-21.3563	-136.285	-214.868	-28.2284	-69.274	-216.34	-31.2073	-89.1227	-223.082	-39.7062	-115.273	-201.985	-2.28361	-32.2496	-201.154	-1.62363	-5.05467	-175.951	16.6049	-21.5203	
56	0.466667	-142.389	-1.60883	-25.4094	-125.447	-18.2499	-51.4169	-123.352	-35.8292	-77.356	-131.333	-53.7688	-92.3284	-171.13	12.5771	-93.5139	-166.086	10.1533	-119.608	-163.472	7.10328	-142.146	-194.501	4.29623	-97.5057	-194.336	-0.119425	-126.481	-193.798	-8.47841	-155.947	-205.762	-10.7482	-83.0203	-210.936	-15.0901	-113.888	-208.588	-19.9555	-139.507	-214.918	-27.8109	-66.5912	-220.184	-31.0295	-88.0043	-227.969	-37.775	-113.054	-209.538	-4.05583	-36.2863	-206.971	-3.08228	-2.50676	-177.209	15.5299	-26.7247	
57	0.475	-144.866	-6.34855	-21.3421	-133.062	-22.448	-51.1324	-144.033	-41.4106	-77.2293	-159.273	-56.1548	-86.0827	-169.546	10.8904	-95.5527	-167.787	7.95603	-120.419	-163.514	5.52555	-144.619	-195.596	4.1342	-96.5985	-194.762	1.77726	-121.354	-193.446	-5.52168	-156.765	-206.761	-9.42104	-87.962	-209.89	-11.1815	-112.38	-210.612	-17.2419	-135.149	-218.159	-27.5295	-67.9888	-225.573	-30.8387	-91.4005	-232.035	-32.931	-110.898	-207.987	-5.76538	-33.2526	-203.462	-1.31378	-4.709	-178.663	14.056	-23.4881	
58	0.483333	-142.339	-9.28025	-20.7539	-138.966	-27.0576	-52.9578	-152.459	-42.7194	-75.7952	-177.903	-54.9288	-81.6153	-168.574	11.157	-91.0087	-164.932	9.09264	-116.976	-161.487	6.04722	-145.728	-193.777	4.59503	-93.0241	-192.081	3.51029	-125.53	-190.448	0.180883	-156.053	-206.956	-9.0315	-83.6993	-210.277	-10.8918	-111.691	-210.404	-14.2668	-134.277	-219.006	-26.3124	-68.998	-222.241	-27.3719	-89.8394	-229.7	-29.4469	-113.855	-204.631	-2.55441	-35.4566	-204.682	-4.74153	-2.60819	-178.792	12.6484	-23.4443	
59	0.491667	-142.888	-9.57791	-18.6816	-142.145	-26.6207	-53.2092	-160.348	-40.4345	-74.8446	-186.853	-49.148	-74.161	-165.257	16.3821	-93.0204	-158.688	15.0624	-118.833	-159.126	10.6216	-139.111	-193.414	10.0447	-94.7005	-189.807	11.0302	-119.82	-190.416	5.61214	-151.729	-206.807	-4.79255	-86.312	-207.35	-4.98537	-112.433	-211.441	-8.98525	-139.15	-216.851	-24.3459	-68.1412	-222.681	-25.9446	-94.6606	-225.881	-27.2463	-112.339	-208.664	-3.07013	-29.5985	-207.322	-3.60712	-2.23385	-175.542	16.1453	-21.1641	
60	0.5	-144.284	-6.37322	-17.9795	-143.962	-22.4279	-52.6626	-166.474	-36.8442	-77.4298	-189.761	-43.1304	-71.882	-167.619	19.6084	-86.0021	-162.966	18.9846	-113.886	-159.676	14.8701	-142.344	-190.118	17.1605	-91.9847	-190.743	16.1088	-117.72	-186.538	15.8026	-153.559	-207.249	-0.29653	-84.3719	-210.823	-1.33617	-110.646	-209.809	-2.74695	-135.091	-215.673	-19.8564	-70.1833	-222.382	-23.5246	-91.6683	-229.278	-22.7952	-111.277	-206.876	1.89309	-33.6915	-205.346	-1.5561	-0.336297	-180.474	14.7044	-19.5705	
61	0.508333	-146.852	-5.43805	-19.7953	-145.529	-22.608	-54.4467	-166.447	-37.0852	-75.7871	-195.668	-45.3695	-72.1263	-173.351	18.801	-86.8285	-167.5	18.3693	-115.37	-160.159	16.6069	-140.185	-194.832	15.7861	-93.5552	-195.674	15.2791	-121.658	-192.266	14.5724	-152.878	-212.693	-3.16691	-82.5744	-213.963	-0.490746	-109.28	-218.343	-4.38171	-136.293	-222.887	-21.366	-70.8849	-226.229	-22.3761	-92.0674	-230.365	-22.2774	-111.835	-211.103	0.00823093	-33.5485	-208.405	-2.39063	-3.41512	-179.698	19.3269	-17.5012	
62	0.516667	-151.129	-10.6522	-18.6936	-152.341	-26.6468	-55.5552	-171.137	-40.8006	-72.3417	-200.349	-48.6567	-67.2084	-176.636	12.3443	-90.7712	-171.378	11.397	-114.527	-168.55	5.88015	-142.441	-200.138	7.5645	-91.7119	-199.286	8.24786	-122.235	-202.163	5.00259	-150.856	-217.477	-9.28879	-83.6409	-219.013	-6.88567	-106.711	-224.516	-11.047	-135.718	-226.378	-26.5417	-67.3795	-232.49	-28.397	-88.6305	-240.692	-27.1076	-109.761	-213.183	-2.97472	-27.4297	-209.774	-5.60549	-1.49812	-184.615	12.274	-19.1068	
63	0.525	-154.828	-14.6287	-18.083	-153.493	-28.7272	-53.3141	-175.193	-41.9398	-71.6658	-201.939	-50.6328	-64.614	-177.826	7.67025	-88.6707	-172.841	5.85472	-116.295	-168.661	2.81681	-141.334	-203.932	2.95634	-92.0921	-202.474	3.82296	-117.642	-201.346	2.57604	-150.271	-218.198	-12.5026	-79.0163	-221.573	-11.2157	-106.719	-227.965	-14.8435	-131.594	-226.533	-28.5218	-63.4199	-235.677	-31.5037	-84.9517	-240.855	-27.0911	-107.208	-213.946	-6.45582	-27.9225	-216.963	-9.92521	2.33232	-186.697	10.4549	-20.0118	
64	0.533333	-156.17	-9.57671	-17.3891	-149.977	-23.7024	-51.2327	-176.479	-35.8933	-75.298	-199.469	-44.3723	-65.0487	-176.331	15.0689	-88.6787	-169.865	14.6555	-115.427	-163.99	13.1777	-135.937	-199.851	12.982	-89.2346	-201.315	12.8779	-118.536	-201.234	12.55	-149.162	-219.195	-4.77482	-80.4402	-221.28	-2.75546	-103.941	-224.203	-3.44911	-131.579	-224.701	-21.8062	-65.3195	-234.16	-22.6358	-85.3922	-244.935	-21.5975	-102.887	-214.68	-2.1978	-27.0227	-213.127	-6.40175	1.57577	-184.125	12.4912	-17.3265	
65	0.541667	-154.018	-1.84912	-17.2713	-153.16	-13.3503	-54.5078	-171.657	-26.1086	-72.606	-199.84	-32.9212	-69.134	-172.966	29.8421	-81.2165	-168.098	29.685	-111.959	-162.612	28.8876	-137.974	-197.414	28.2524	-86.9303	-200.897	29.3976	-115.473	-200.975	30.0857	-143.601	-213.452	12.0001	-80.145	-219.429	14.4377	-105.154	-225.321	13.7854	-130.296	-226.092	-7.60349	-67.8607	-237.299	-10.2844	-84.7505	-243.255	-2.80285	-104.436	-212.255	7.76935	-24.6724	-215.506	4.47496	0.0646444	-185.564	22.1578	-14.1343	
66	0.55	-154.139	-4.75666	-20.285	-153.191	-18.9937	-56.0172	-178.456	-28.5946	-76.5111	-207.491	-33.8355	-71.6747	-171.831	28.1115	-83.2278	-167.087	28.7452	-112.432	-162.232	25.9311	-138.974	-200.216	28.1341	-89.3602	-197.788	31.7531	-113.127	-200.55	30.1872	-148.567	-217.649	13.7233	-80.9313	-225.772	16.6593	-104.115	-227.844	17.2719	-128.149	-231.321	-5.16766	-62.9183	-239.913	-4.39307	-83.798	-253.636	-2.88892	-102.184	-212.739	13.1941	-25.7796	-214.308	7.57795	-1.15547	-183.448	23.7805	-16.0485	
67	0.558333	-153.702	-24.5955	-23.6463	-157.566	-43.7574	-55.3656	-184.419	-52.5094	-76.6497	-212.678	-49.5447	-63.5268	-173.282	-2.55697	-91.6581	-166.941	-6.03532	-117.564	-163.531	-8.4661	-142.645	-199.515	-0.475357	-94.6594	-200.59	-1.22577	-122.55	-203.861	-3.47585	-151.144	-218.442	-7.83024	-83.9176	-225.59	-7.8439	-109.863	-230.81	-8.56517	-133.497	-235.949	-19.5356	-67.3172	-246.462	-20.3048	-85.6688	-255.867	-18.3322	-106.329	-211.808	1.33131	-31.0768	-209.653	-0.483669	-6.18241	-178.941	6.26718	-24.4969	
68	0.566667	-144.528	-39.5712	-20.7797	-149.347	-62.9786	-51.273	-175.017	-70.2756	-66.8988	-205.29	-67.4441	-60.2197	-160.464	-25.6564	-95.5894	-156.633	-32.037	-122.8	-156.983	-37.8949	-143.561	-189.02	-20.8342	-96.9999	-191.227	-26.5238	-121.411	-190.685	-32.4892	-151.698	-206.306	-25.8104	-83.6031	-214.756	-29.0428	-108.361	-223.86	-32.4907	-130.44	-227.956	-34.3227	-64.7602	-235.247	-36.7894	-84.9688	-243.418	-37.1944	-103.986	-200.19	-11.3269	-37.4895	-201.207	-5.99587	-7.87358	-169.059	-8.09635	-28.7509	
